HIERARCHY
ROOT Hips
{
  OFFSET 0 0 0
  CHANNELS 6 Xposition Yposition Zposition Zrotation Xrotation Yrotation
  JOINT LeftUpLeg
  {
    OFFSET 4.06525 -3.90732 0.41711
    CHANNELS 3 Zrotation Xrotation Yrotation
    JOINT LeftLeg
    {
      OFFSET 0.00023 -18.4821 0.00367
      CHANNELS 3 Zrotation Xrotation Yrotation
      JOINT LeftFoot
      {
        OFFSET -0.00172 -15.2898 -0.02629
        CHANNELS 3 Zrotation Xrotation Yrotation
        JOINT LeftToeBase
        {
          OFFSET 0.36743 -3.19131 5.54287
          CHANNELS 3 Zrotation Xrotation Yrotation
          JOINT LeftToeBase2
          {
            OFFSET 0.08751 0.04849 1.36758
            CHANNELS 3 Zrotation Xrotation Yrotation
            JOINT LeftToeBase3
            {
              OFFSET 0.07484 0.06785 1.16707
            }
          }
        }
      }
    }
  }
  JOINT RightUpLeg
  {
    OFFSET -4.06526 -3.90731 0.41712
    CHANNELS 3 Zrotation Xrotation Yrotation
    JOINT RightLeg
    {
      OFFSET -0.00029 -18.4821 0.0044
      CHANNELS 3 Zrotation Xrotation Yrotation
      JOINT RightFoot
      {
        OFFSET 0.0016 -15.2898 -0.02569
        CHANNELS 3 Zrotation Xrotation Yrotation
        JOINT RightToeBase
        {
          OFFSET -0.3542 -3.19109 5.54386
          CHANNELS 3 Zrotation Xrotation Yrotation
          JOINT RightToeBase2
          {
            OFFSET -0.08424 0.04854 1.36778
            CHANNELS 3 Zrotation Xrotation Yrotation
            JOINT RightToeBase3
            {
              OFFSET -0.07205 0.0679 1.16725
            }
          }
        }
      }
    }
  }
  JOINT Spine
  {
    OFFSET 1e-005 4.46517 -0.10224
    CHANNELS 3 Zrotation Xrotation Yrotation
    JOINT Spine1
    {
      OFFSET 1e-005 4.46212 -0.1824
      CHANNELS 3 Zrotation Xrotation Yrotation
      JOINT Spine2
      {
        OFFSET 0 4.37937 -0.881
        CHANNELS 3 Zrotation Xrotation Yrotation
        JOINT Spine3
        {
          OFFSET 1e-005 4.68286 0.21414
          CHANNELS 3 Zrotation Xrotation Yrotation
          JOINT Neck
          {
            OFFSET 0 1.76964 0.82454
            CHANNELS 3 Zrotation Xrotation Yrotation
            JOINT Head
            {
              OFFSET 0 1.6961 0.93145
              CHANNELS 3 Zrotation Xrotation Yrotation
              JOINT Head_End
              {
                OFFSET 1e-005 7.8375 1.52603
              }
            }
          }
          JOINT LeftShoulder
          {
            OFFSET 1.19381 -0.75881 -0.02768
            CHANNELS 3 Zrotation Xrotation Yrotation
            JOINT LeftArm
            {
              OFFSET 5.18779 -2e-005 1e-005
              CHANNELS 3 Zrotation Xrotation Yrotation
              JOINT LeftForeArm
              {
                OFFSET 12.7364 -4e-005 2e-005
                CHANNELS 3 Zrotation Xrotation Yrotation
                JOINT LeftHand
                {
                  OFFSET 9.21452 -2e-005 1e-005
                  CHANNELS 3 Zrotation Xrotation Yrotation
                }
              }
            }
          }
          JOINT RightShoulder
          {
            OFFSET -1.19381 -0.75881 -0.02767
            CHANNELS 3 Zrotation Xrotation Yrotation
            JOINT RightArm
            {
              OFFSET -5.18779 1e-005 -1e-005
              CHANNELS 3 Zrotation Xrotation Yrotation
              JOINT RightForeArm
              {
                OFFSET -12.7364 3e-005 -2e-005
                CHANNELS 3 Zrotation Xrotation Yrotation
                JOINT RightHand
                {
                  OFFSET -9.21452 2e-005 -1e-005
                  CHANNELS 3 Zrotation Xrotation Yrotation
                }
              }
            }
          }
        }
      }
    }
  }
}
MOTION
Frames: 10
Frame Time: 	0.0166667
-1.0129e-008 38.7267 7.33833e-007 1.86714 -4.16447 0.135637 5.93766 9.41844 0.362243  -2.32521 41.5198 -17.9281  3.50155 -26.7192 -1.39264  5.94451 -13.9731 0.00580585  -0 0 -0   -8.90998 -27.1104 -5.57725  1.87761 35.5879 0.622984  2.47662 -3.89593 -0.133893  -0.00162004 0.00022983 1.91314e-008  -0 0 -0   -0.0629787 5.64441 -5.20448  0.622185 1.86013 -0.46948  0.612709 1.86369 -0.464935  0.603096 1.8672 -0.460561  -6.02442e-014 4.01545e-014 -9.14409e-014  3.06652 3.61303 5.19845   0.12045 0.0592151 3.8101  -56.5134 26.8383 -20.3534  11.0992 18.6001 -30.8892  -14.4654 -0.173889 11.4113  -0.135268 -0.00522897 -3.57686  60.8881 19.8459 8.63513  -17.5875 22.9441 38.6595  6.58001 0.333286 -6.22274 
-0.203355 38.7846 0.388011 1.74121 -4.52495 0.946274 6.92377 7.73525 0.738538  -1.8919 46.2124 -19.718  3.61377 -24.6506 -1.24356  7.0105 -16.4043 0.00495253  -0 0 -0   -8.67708 -26.1175 -5.36685  2.47446 36.2468 -0.697054  2.19058 -5.12286 0.0158552  -0.00168755 0.000225411 1.91314e-008  -0 0 -0   0.267182 6.48022 -5.24083  0.598433 1.92286 -0.493239  0.588947 1.92634 -0.488357  0.57931 1.92977 -0.483659  -6.02442e-014 4.01545e-014 -9.14409e-014  3.55615 3.40024 4.48749   0.120337 0.0608629 3.81317  -56.6437 27.503 -19.8041  9.97687 16.9958 -30.0897  -14.5321 -0.188063 11.854  -0.133787 -0.00401159 -3.58405  60.3895 19.1601 9.29553  -18.7545 23.9823 39.5599  5.97659 0.345398 -5.86216 
-0.400464 38.8491 0.73558 1.74477 -4.88879 1.82841 7.7021 5.94882 1.03336  -1.18739 50.6066 -21.5092  3.66798 -22.1474 -1.08815  7.96851 -18.8134 0.00344189  -0 0 -0   -8.61414 -25.1181 -5.28612  3.00124 36.7512 -1.90861  1.95732 -6.21964 0.14332  -0.00175464 0.000219991 1.91314e-008  -0 0 -0   0.498717 7.42748 -5.33868  0.565318 1.97849 -0.527914  0.555903 1.98189 -0.522669  0.546324 1.98522 -0.517622  -6.02442e-014 4.01545e-014 -9.14409e-014  4.05384 3.22529 3.78008   0.120252 0.0621275 3.81393  -56.6813 28.0366 -19.2195  8.86618 15.0581 -29.6434  -14.6079 -0.205622 12.4099  -0.132377 -0.00324037 -3.59066  59.8693 18.3771 10.0525  -20.0201 25.0776 40.5178  5.62378 0.338249 -5.46415 
-0.576919 38.9158 1.05133 1.81858 -5.10321 2.46286 8.2415 4.11611 1.26801  -0.491568 54.4325 -22.7382  3.65718 -19.412 -0.939402  8.6822 -20.997 0.00243451  -0 0 -0   -8.51852 -24.3145 -5.18605  3.32641 37.0707 -2.79398  1.78303 -7.10298 0.242627  -0.00182131 0.000213581 1.91314e-008  -0 0 -0   0.614152 8.36287 -5.22929  0.538485 2.02944 -0.534617  0.529607 2.03261 -0.529259  0.520562 2.03572 -0.524101  -6.02442e-014 4.01545e-014 -9.14409e-014  4.54761 3.07465 3.08888   0.120195 0.0629911 3.81314  -56.7056 28.3472 -18.6734  7.82896 13.0016 -29.5512  -14.7145 -0.229515 13.0935  -0.131057 -0.00315214 -3.59512  59.2272 17.5601 10.858  -21.2757 26.0452 41.525  5.72147 0.305745 -5.01059 
-0.748912 38.9835 1.34085 1.98895 -5.22432 2.96707 8.61231 2.20918 1.45135  0.17552 57.8209 -23.6405  3.58797 -16.538 -0.791412  9.21608 -22.9262 0.00237277  -0 0 -0   -8.44444 -23.6574 -5.10492  3.48343 37.3036 -3.45021  1.65316 -7.86047 0.325727  -0.00188758 0.000206195 1.91314e-008  -0 0 -0   0.564868 9.28745 -4.99636  0.512959 2.07848 -0.525395  0.504753 2.08138 -0.51978  0.496373 2.08422 -0.514361  -6.02442e-014 4.01545e-014 -9.14409e-014  5.04814 2.98105 2.44958   0.120167 0.063436 3.81158  -56.6495 28.5112 -18.1872  6.81935 10.8589 -29.7558  -14.8056 -0.255633 13.8868  -0.12985 -0.00398371 -3.59559  58.5213 16.834 11.691  -22.3331 26.6973 42.4704  6.06002 0.264536 -4.53651 
-0.933418 39.0481 1.61203 2.23655 -5.22441 3.34341 8.90269 0.193093 1.62331  0.632606 60.8502 -24.2171  3.4582 -13.5598 -0.640027  9.6226 -24.5462 0.00944933  -0 0 -0   -8.3451 -23.207 -5.01176  3.43562 37.5539 -3.91416  1.56313 -8.55505 0.399114  -0.00195343 0.000197842 1.91314e-008  -0 0 -0   0.24667 10.1628 -4.59734  0.492328 2.125 -0.494694  0.484742 2.12768 -0.488196  0.476959 2.13033 -0.481887  -6.02442e-014 4.01545e-014 -9.14409e-014  5.58785 2.96616 1.90286   0.120169 0.0634441 3.81003  -56.4464 28.5676 -17.8374  5.82718 8.70536 -30.2182  -14.8428 -0.27847 14.8187  -0.128868 -0.00746826 -3.58836  57.7675 16.3734 12.4783  -22.892 26.7094 43.2188  6.55429 0.218426 -4.05014 
-1.10836 39.1126 1.86812 2.566 -5.1817 3.61522 9.01814 -1.84482 1.73095  0.835986 63.4078 -24.3528  3.2952 -10.8368 -0.493533  9.78642 -25.7346 0.0155476  -0 0 -0   -8.31792 -22.8442 -4.96939  3.2744 37.7825 -4.17272  1.49538 -9.18364 0.464102  -0.00201887 0.000188534 1.91314e-008  -0 0 -0   -0.183178 10.9842 -4.13104  0.468124 2.18214 -0.456346  0.461071 2.18462 -0.448844  0.453793 2.18706 -0.441523  -6.02442e-014 4.01545e-014 -9.14409e-014  6.08967 3.04717 1.44208   0.120199 0.0629978 3.80926  -56.1794 28.5341 -17.5393  4.84086 6.60507 -30.8721  -14.8259 -0.295023 15.7647  -0.12801 -0.0118906 -3.57744  56.923 16.1071 13.315  -23.0952 26.3604 43.7702  7.02934 0.18172 -3.61262 
-1.25593 39.1812 2.11747 3.01636 -5.16936 3.84242 8.84178 -3.83918 1.69016  0.715918 65.4402 -23.9689  3.09326 -8.48161 -0.361238  9.66302 -26.5694 0.0454559  -0 0 -0   -8.50227 -22.4465 -5.07047  3.09055 37.9801 -4.22297  1.43334 -9.77015 0.522558  -0.00208391 0.000178284 1.91314e-008  -0 0 -0   -0.612231 11.7287 -3.71531  0.430345 2.26336 -0.425451  0.423584 2.26558 -0.417129  0.416573 2.26776 -0.408987  -6.02442e-014 4.01545e-014 -9.14409e-014  6.48382 3.26122 1.08338   0.12026 0.0620793 3.80917  -55.9192 28.4329 -17.2348  3.85822 4.61835 -31.6243  -14.7402 -0.299437 16.611  -0.127236 -0.0165253 -3.56502  55.9686 16.0072 14.2717  -22.9752 25.8004 44.0651  7.26719 0.15955 -3.28721 
-1.3812 39.2442 2.35292 3.48945 -5.15573 3.92149 8.51705 -5.7647 1.58171  0.0749808 66.8313 -22.8836  2.95019 -7.25883 -0.284508  9.09604 -26.3991 0.0291058  -0 0 -0   -8.71869 -22.0925 -5.18681  2.85213 38.1719 -4.08228  1.37401 -10.3027 0.575167  -0.00214854 0.000167102 1.91314e-008  -0 0 -0   -0.991006 12.4144 -3.2902  0.389929 2.36647 -0.392325  0.383395 2.36841 -0.383383  0.376592 2.37031 -0.374619  -6.02442e-014 4.01545e-014 -9.14409e-014  6.78121 3.57409 0.798879   0.120358 0.0606711 3.80515  -55.6529 28.2864 -16.9231  2.91364 2.79975 -32.5071  -14.5866 -0.290092 17.3551  -0.12652 -0.0208587 -3.55278  54.8752 16.0972 15.3648  -22.6338 25.0654 44.2193  7.30959 0.148346 -3.07846 
-1.47844 39.2905 2.56903 3.86691 -5.18876 3.73213 8.15079 -7.53934 1.49068  -1.38777 67.3736 -20.7959  3.02118 -8.55035 -0.348349  7.80537 -24.0761 -0.0148145  -0 0 -0   -8.8062 -21.8106 -5.20366  2.55517 38.3908 -3.7483  1.30707 -10.7825 0.622874  -0.00221277 0.000155 1.91314e-008  -0 0 -0   -1.20376 13.0457 -2.81805  0.356269 2.49785 -0.349128  0.350031 2.49946 -0.339803  0.343512 2.50104 -0.330651  -6.02442e-014 4.01545e-014 -9.14409e-014  6.95405 3.98779 0.57391   0.120495 0.0587554 3.79664  -55.3952 28.132 -16.5879  2.03745 1.19947 -33.5169  -14.3541 -0.264668 17.9656  -0.125818 -0.0240667 -3.54334  53.5758 16.4236 16.6519  -22.1464 24.2023 44.3003  7.09685 0.151727 -3.02725 
